<?xml version='1.0' encoding='UTF-8'?>
<svg xmlns="http://www.w3.org/2000/svg" font-family="ConsolasFallback,Consolas,Menlo,monospace" width="985px" height="470px" font-size="16px">
<style>
@font-face { src: local('Consolas'), local('Consolas Bold'); font-family: 'ConsolasFallback'; font-display: swap; size-adjust: 109%; }
.key {fill: #ffa657;} .value {fill: #a5d6ff;} .cc {fill: #616e7f;} .grn {fill: #3fb950;} .jav {fill: #ffa657;} text, tspan {white-space: pre;}
</style>
<rect width="985px" height="470px" fill="#161b22" rx="15"/>
<text x="25" y="40" fill="#c9d1d9">
<tspan x="25" y="40"></tspan>
<tspan x="25" y="60"></tspan>
<tspan x="25" y="80"></tspan>
<tspan x="25" y="100">             ;i~+i,</tspan>
<tspan x="25" y="120">            .icxrri</tspan>
<tspan x="25" y="140">            ,i++rv==`</tspan>
<tspan x="25" y="160">            ;+rrcz~"</tspan>
<tspan x="25" y="180">             ;=ccr^</tspan>
<tspan x="25" y="200">              'i~=xcxi;`</tspan>
<tspan x="25" y="220">            ^xv~x8#####env+`</tspan>
<tspan x="25" y="240">         '=n8#8xu##########u.</tspan>
<tspan x="25" y="260">        .u##################~</tspan>
<tspan x="25" y="280">        i##8################u</tspan>
<tspan x="25" y="300">        z#88################%.</tspan>
<tspan x="25" y="320">       ,e8#%%###############8`</tspan>
<tspan x="25" y="340">       ^#8#%e################'</tspan>
<tspan x="25" y="360">       =####%###############%.</tspan>
<tspan x="25" y="380">       v####w###############z</tspan>
<tspan x="25" y="400">       v###ex##############u;</tspan>
<tspan x="25" y="420">       ,c%#8e###########%x^</tspan>
<tspan x="25" y="440">         `^=xe8####8enr^`</tspan>
</text>
<text x="380" y="40" fill="#c9d1d9">
<tspan x="380" y="40">saverio@mandarano</tspan> ----------------------------------------
<tspan x="380" y="60" class="cc">. </tspan><tspan class="key">Role</tspan>:<tspan class="cc"> ................. </tspan><tspan class="value">Jr. Full-Stack Web Developer</tspan>
<tspan x="380" y="80" class="cc">. </tspan><tspan class="key">Education</tspan>:<tspan class="cc"> ............ </tspan><tspan class="value">Boolean - Tech Academy</tspan>
<tspan x="380" y="100" class="cc">. </tspan><tspan class="key">Location</tspan>:<tspan class="cc"> ............. </tspan><tspan class="value">Rome, Italy</tspan>
<tspan x="380" y="120" class="cc">. </tspan><tspan class="key">Focus</tspan>:<tspan class="cc"> ................ </tspan><tspan class="value">Backend Development</tspan>
<tspan x="380" y="140" class="cc">. </tspan>
<tspan x="380" y="160" class="cc">. </tspan><tspan class="key">Languages</tspan>.<tspan class="key">Programming</tspan>:<tspan class="cc">  </tspan><tspan class="value">Java, JavaScript</tspan>
<tspan x="380" y="180" class="cc">. </tspan><tspan class="key">Web</tspan>:<tspan class="cc"> .................. </tspan><tspan class="value">HTML, CSS, Bootstrap</tspan>
<tspan x="380" y="200" class="cc">. </tspan><tspan class="key">Frameworks</tspan>:<tspan class="cc"> ........... </tspan><tspan class="value">Spring, React</tspan>
<tspan x="380" y="220" class="cc">. </tspan><tspan class="key">Data</tspan>.<tspan class="key">Tools</tspan>:<tspan class="cc"> ........... </tspan><tspan class="value">MySQL, Hibernate, Maven, Git</tspan>
<tspan x="380" y="240">----------------------------------------------------------</tspan>
</text>
<circle cx="548" cy="372" r="90" fill="none" stroke="#ffa657" stroke-width="2.5"/>
<text x="494" y="315" class="jav">
<tspan x="494" y="315">    ) ) )  </tspan>
<tspan x="494" y="335">    ( ( (  </tspan>
<tspan x="494" y="355"> .------.__</tspan>
<tspan x="494" y="375">|      |  |</tspan>
<tspan x="494" y="395">|      |__|</tspan>
<tspan x="494" y="415">  '------' </tspan>
<tspan x="494" y="435">   \____/  </tspan>
</text>
<circle cx="773" cy="372" r="90" fill="none" stroke="#3fb950" stroke-width="2.5"/>
<text x="739" y="315" class="grn">
<tspan x="739" y="315">     . </tspan>
<tspan x="739" y="335">   /|\ </tspan>
<tspan x="739" y="355"> / | \ </tspan>
<tspan x="739" y="375">(  |  )</tspan>
<tspan x="739" y="395"> \ | / </tspan>
<tspan x="739" y="415">   \|/ </tspan>
<tspan x="739" y="435">    |  </tspan>
</text>
</svg>