<?xml version='1.0' encoding='UTF-8'?>
<svg xmlns="http://www.w3.org/2000/svg" font-family="ConsolasFallback,Consolas,Menlo,monospace" width="985px" height="470px" font-size="16px">
<style>
@font-face { src: local('Consolas'), local('Consolas Bold'); font-family: 'ConsolasFallback'; font-display: swap; size-adjust: 109%; }
.key {fill: #953800;} .value {fill: #0550ae;} .cc {fill: #a5a5a5;} text, tspan {white-space: pre;}
</style>
<rect width="985px" height="470px" fill="#ffffff" rx="15"/>
<text x="25" y="40" fill="#24292f">
<tspan x="25" y="40"></tspan>
<tspan x="25" y="60"></tspan>
<tspan x="25" y="80"></tspan>
<tspan x="25" y="100">             ;i~+i,</tspan>
<tspan x="25" y="120">            .icxrri</tspan>
<tspan x="25" y="140">            ,i++rv==`</tspan>
<tspan x="25" y="160">            ;+rrcz~"</tspan>
<tspan x="25" y="180">             ;=ccr^</tspan>
<tspan x="25" y="200">              'i~=xcxi;`</tspan>
<tspan x="25" y="220">            ^xv~x8#####env+`</tspan>
<tspan x="25" y="240">         '=n8#8xu##########u.</tspan>
<tspan x="25" y="260">        .u##################~</tspan>
<tspan x="25" y="280">        i##8################u</tspan>
<tspan x="25" y="300">        z#88################%.</tspan>
<tspan x="25" y="320">       ,e8#%%###############8`</tspan>
<tspan x="25" y="340">       ^#8#%e################'</tspan>
<tspan x="25" y="360">       =####%###############%.</tspan>
<tspan x="25" y="380">       v####w###############z</tspan>
<tspan x="25" y="400">       v###ex##############u;</tspan>
<tspan x="25" y="420">       ,c%#8e###########%x^</tspan>
<tspan x="25" y="440">         `^=xe8####8enr^`</tspan>
</text>
<text x="380" y="40" fill="#24292f">
<tspan x="380" y="40">saverio@mandarano</tspan> ----------------------------------------
<tspan x="380" y="60" class="cc">. </tspan><tspan class="key">Role</tspan>:<tspan class="cc"> ................. </tspan><tspan class="value">Jr. Full-Stack Web Developer</tspan>
<tspan x="380" y="80" class="cc">. </tspan><tspan class="key">Education</tspan>:<tspan class="cc"> ............ </tspan><tspan class="value">Boolean - Tech Academy</tspan>
<tspan x="380" y="100" class="cc">. </tspan><tspan class="key">Location</tspan>:<tspan class="cc"> ............. </tspan><tspan class="value">Rome, Italy</tspan>
<tspan x="380" y="120" class="cc">. </tspan><tspan class="key">Focus</tspan>:<tspan class="cc"> ................ </tspan><tspan class="value">Backend Development</tspan>
<tspan x="380" y="140" class="cc">. </tspan>
<tspan x="380" y="160" class="cc">. </tspan><tspan class="key">Languages</tspan>.<tspan class="key">Programming</tspan>:<tspan class="cc">  </tspan><tspan class="value">Java, JavaScript</tspan>
<tspan x="380" y="180" class="cc">. </tspan><tspan class="key">Web</tspan>:<tspan class="cc"> .................. </tspan><tspan class="value">HTML, CSS, Bootstrap</tspan>
<tspan x="380" y="200" class="cc">. </tspan><tspan class="key">Frameworks</tspan>:<tspan class="cc"> ........... </tspan><tspan class="value">Spring, React</tspan>
<tspan x="380" y="220" class="cc">. </tspan><tspan class="key">Data</tspan>.<tspan class="key">Tools</tspan>:<tspan class="cc"> ........... </tspan><tspan class="value">MySQL, Hibernate, Maven, Git</tspan>
<tspan x="380" y="240">----------------------------------------------------------</tspan>
</text>
<circle cx="586" cy="340" r="52" fill="none" stroke="#953800" stroke-width="2.5"/>
<path d="M 576.8,310.5 C 572.2,317.4 581.4,319.7 576.8,326.6" fill="none" stroke="#953800" stroke-width="2" stroke-linecap="round"/>
<path d="M 586.0,307.1 C 581.4,313.9 590.6,316.2 586.0,323.1" fill="none" stroke="#953800" stroke-width="2" stroke-linecap="round"/>
<path d="M 595.2,310.5 C 590.6,317.4 599.8,319.7 595.2,326.6" fill="none" stroke="#953800" stroke-width="2" stroke-linecap="round"/>
<path d="M 565.3,331.2 L 568.8,362.2 Q 568.8,368.0 574.5,368.0 L 597.5,368.0 Q 603.2,368.0 603.2,362.2 L 606.7,331.2 Z" fill="none" stroke="#953800" stroke-width="2.4" stroke-linejoin="round"/>
<path d="M 603.2,338.1 Q 620.5,340.4 614.8,353.1 Q 611.3,357.6 602.1,356.5" fill="none" stroke="#953800" stroke-width="2.4" stroke-linecap="round"/>
<path d="M 561.9,372.6 L 610.1,372.6" stroke="#953800" stroke-width="2.4" stroke-linecap="round"/>
<circle cx="736" cy="340" r="52" fill="none" stroke="#1a7f37" stroke-width="2.5"/>
<path d="M 736.0,306.8 C 754.0,322.4 752.8,353.6 736.0,369.2 C 719.2,353.6 718.0,322.4 736.0,306.8 Z" fill="#1a7f37" fill-opacity="0.15" stroke="#1a7f37" stroke-width="2.4" stroke-linejoin="round"/>
<path d="M 736.0,311.6 L 736.0,365.6" stroke="#1a7f37" stroke-width="2" stroke-linecap="round"/>
<path d="M 736.0,327.2 L 746.8,318.8" stroke="#1a7f37" stroke-width="1.6" stroke-linecap="round"/>
<path d="M 736.0,341.6 L 725.2,334.4" stroke="#1a7f37" stroke-width="1.6" stroke-linecap="round"/>
<path d="M 736.0,353.6 L 745.6,346.4" stroke="#1a7f37" stroke-width="1.6" stroke-linecap="round"/>
<path d="M 736.0,369.2 L 736.0,377.6" stroke="#1a7f37" stroke-width="2" stroke-linecap="round"/>
</svg>